<?xml version="1.0" encoding="UTF-8" standalone="no"?>
<!DOCTYPE svg PUBLIC "-//W3C//DTD SVG 1.1//EN" "http://www.w3.org/Graphics/SVG/1.1/DTD/svg11.dtd">
<svg width="100%" height="100%" viewBox="0 0 2048 2048" version="1.1" xmlns="http://www.w3.org/2000/svg" xmlns:xlink="http://www.w3.org/1999/xlink" xml:space="preserve" xmlns:serif="http://www.serif.com/" style="fill-rule:evenodd;clip-rule:evenodd;stroke-linejoin:round;stroke-miterlimit:2;">
    <path d="M1173.72,171.112C1173.72,183.092 1181.89,205.277 1187.98,217.455C1192.11,225.7 1183.4,248.519 1189.77,254.886C1200.91,266.027 1208.05,397.936 1220.07,409.956C1226.34,416.228 1212.91,679.193 1207.59,695.144C1198.42,722.662 1201.58,797.41 1186.2,812.783C1171.39,827.595 1172.3,858.765 1157.68,873.386C1127.68,903.389 1085.75,984.019 1070.34,1030.24C1064.97,1046.35 1037.15,1116.9 1029.35,1124.71C1000.79,1153.26 968.801,1174.56 940.226,1203.13C931.066,1212.29 926.216,1231.4 917.055,1240.56C892.176,1265.44 866.74,1290.88 840.411,1317.21C812.14,1345.48 772.796,1367 745.943,1393.85C731.682,1408.11 698.858,1398.16 685.34,1411.68C665.321,1431.7 576.488,1476.8 549.876,1490.1C520.668,1504.71 410.928,1516.76 391.241,1536.45C379.161,1548.53 351.228,1565.36 337.769,1572.09C320.52,1580.72 223.496,1677.06 239.735,1693.3C248.689,1702.25 248.283,1723.24 257.56,1732.51C273.598,1748.55 291.281,1760.89 309.25,1778.86C330.164,1799.77 367.094,1802.83 385.894,1821.63C397.891,1833.63 516.755,1863.89 542.747,1876.89C578.212,1894.62 612.978,1926.44 656.822,1941.06C671.887,1946.08 710.07,1951.52 720.989,1962.44C728.855,1970.31 816.042,1967.79 835.063,1967.79C907.928,1967.79 1146.92,1969.61 1193.33,1946.4C1217.58,1934.28 1250.51,1934.75 1277.1,1921.45C1309.35,1905.33 1334.05,1890.3 1364.44,1875.11C1374.85,1869.9 1397.29,1865.43 1405.44,1857.28C1426.59,1836.13 1460.25,1830.99 1480.3,1810.94C1498.42,1792.82 1516.43,1761.68 1542.68,1748.55C1568.78,1735.51 1587.36,1678.92 1610.42,1655.87C1616.24,1650.05 1610.6,1639.64 1617.55,1632.7C1650.49,1599.75 1684.48,1549.22 1712.01,1507.93C1721.17,1494.2 1729.98,1475.71 1740.53,1465.15C1765.65,1440.03 1768.76,1399.49 1792.22,1376.03C1795.3,1372.95 1793.91,1361.87 1797.57,1358.2C1832.68,1323.09 1838.86,1213.25 1861.74,1167.49C1874.5,1141.97 1861.6,1108.93 1874.21,1083.71C1905.92,1020.3 1806.31,660.634 1811.83,716.533C1817.88,777.842 1804.94,638.343 1801.13,634.541C1760.22,593.627 1763.12,537.713 1715.58,490.165C1702.9,477.489 1697.01,453.772 1685.28,442.04C1658.8,415.556 1639.51,376.668 1612.2,349.354C1588.77,325.93 1563.98,304.701 1539.12,279.84C1506.32,247.038 1460.6,236.125 1416.13,213.89C1398.76,205.202 1380.33,205.794 1364.44,197.849C1313.04,172.149 1255.23,138.381 1196.89,167.547C1190.56,170.713 1180.85,170.04 1180.85,178.242" style="fill:rgb(255,231,138);"/>
    <path d="M128,1536C222,1536 312.667,1524 400,1500C487.333,1476 568.667,1441.33 644,1396C719.333,1350.67 788.333,1297.33 851,1236C913.667,1174.67 967.333,1105.67 1012,1029C1056.67,952.333 1091,870.667 1115,784C1139,697.333 1151.33,606.667 1152,512C1152,423.333 1140.67,336.333 1118,251C1095.33,165.667 1062.33,84.667 1019,8C1104.33,18.667 1186,39 1264,69C1342,99 1414.33,137.333 1481,184C1547.67,230.667 1608,284.333 1662,345C1716,405.667 1762,472 1800,544C1838,616 1867.67,692.333 1889,773C1910.33,853.667 1920.67,937.333 1920,1024C1920,1118 1908,1208.67 1884,1296C1860,1383.33 1825.33,1464.67 1780,1540C1734.67,1615.33 1681.33,1684.33 1620,1747C1558.67,1809.67 1489.67,1863.33 1413,1908C1336.33,1952.67 1254.67,1987 1168,2011C1081.33,2035 990.667,2047.33 896,2048C804,2048 714.333,2036 627,2012C539.667,1988 457.667,1953.67 381,1909C304.333,1864.33 233.667,1809.67 169,1745C104.333,1680.33 49.667,1608 5,1528C25.667,1530.67 46,1532.67 66,1534C86,1535.33 106.667,1536 128,1536ZM896,1920C978.667,1920 1058,1909.33 1134,1888C1210,1866.67 1281.33,1836.67 1348,1798C1414.67,1759.33 1475,1712.67 1529,1658C1583,1603.33 1629.67,1543 1669,1477C1708.33,1411 1738.67,1339.67 1760,1263C1781.33,1186.33 1792,1106.67 1792,1024C1792,933.333 1778.67,845.667 1752,761C1725.33,676.333 1688,597.667 1640,525C1592,452.333 1533.33,387.667 1464,331C1394.67,274.333 1318.33,229 1235,195C1265,298.333 1280,404 1280,512C1280,609.333 1268.33,703.333 1245,794C1221.67,884.667 1188.33,970.667 1145,1052C1101.67,1133.33 1049.33,1208.33 988,1277C926.667,1345.67 858.333,1406.33 783,1459C707.667,1511.67 626.333,1554.67 539,1588C451.667,1621.33 359.333,1644 262,1656C347.333,1741.33 444,1806.67 552,1852C660,1897.33 774.667,1920 896,1920Z" style="fill:rgb(255,210,0);fill-rule:nonzero;"/>
</svg>
