<?xml version="1.0" encoding="UTF-8" standalone="no"?>
<!DOCTYPE svg PUBLIC "-//W3C//DTD SVG 1.1//EN" "http://www.w3.org/Graphics/SVG/1.1/DTD/svg11.dtd">
<svg width="100%" height="100%" viewBox="0 0 2048 2048" version="1.1" xmlns="http://www.w3.org/2000/svg" xmlns:xlink="http://www.w3.org/1999/xlink" xml:space="preserve" xmlns:serif="http://www.serif.com/" style="fill-rule:evenodd;clip-rule:evenodd;stroke-linejoin:round;stroke-miterlimit:2;">
    <g transform="matrix(1,0,0,1,-156.853,-30.3011)">
        <circle cx="1094.41" cy="995.481" r="364.505" style="fill:rgb(255,201,0);"/>
    </g>
    <path d="M960,512C1022,512 1080,523.667 1134,547C1188,570.333 1235.67,602.333 1277,643C1318.33,683.667 1350.33,731 1373,785C1395.67,839 1407.33,897.333 1408,960C1408,1022 1396.33,1080 1373,1134C1349.67,1188 1317.67,1235.67 1277,1277C1236.33,1318.33 1189,1350.33 1135,1373C1081,1395.67 1022.67,1407.33 960,1408C898,1408 840,1396.33 786,1373C732,1349.67 684.333,1317.67 643,1277C601.667,1236.33 569.667,1189 547,1135C524.333,1081 512.667,1022.67 512,960C512,898 523.667,840 547,786C570.333,732 602.333,684.333 643,643C683.667,601.667 731,569.667 785,547C839,524.333 897.333,512.667 960,512ZM960,1280C1004,1280 1045.33,1271.67 1084,1255C1122.67,1238.33 1156.33,1215.67 1185,1187C1213.67,1158.33 1236.67,1124.33 1254,1085C1271.33,1045.67 1280,1004 1280,960C1280,916 1271.67,874.667 1255,836C1238.33,797.333 1215.33,763.667 1186,735C1156.67,706.333 1122.67,683.333 1084,666C1045.33,648.667 1004,640 960,640C916,640 874.667,648.333 836,665C797.333,681.667 763.333,704.667 734,734C704.667,763.333 681.667,797.333 665,836C648.333,874.667 640,916 640,960C640,1004 648.333,1045.33 665,1084C681.667,1122.67 704.333,1156.67 733,1186C761.667,1215.33 795.667,1238.33 835,1255C874.333,1271.67 916,1280 960,1280ZM1024,384L896,384L896,0L1024,0L1024,384ZM896,1536L1024,1536L1024,1920L896,1920L896,1536ZM1920,896L1920,1024L1536,1024L1536,896L1920,896ZM384,1024L0,1024L0,896L384,896L384,1024ZM507,598L236,326L326,236L598,507L507,598ZM1413,1322L1684,1594L1594,1684L1322,1413L1413,1322ZM1413,598L1322,507L1594,236L1684,326L1413,598ZM507,1322L598,1413L326,1684L236,1594L507,1322Z" style="fill:rgb(255,148,0);fill-rule:nonzero;"/>
</svg>
