<?xml version="1.0" encoding="UTF-8" standalone="no"?>
<!DOCTYPE svg PUBLIC "-//W3C//DTD SVG 1.1//EN" "http://www.w3.org/Graphics/SVG/1.1/DTD/svg11.dtd">
<svg width="100%" height="100%" viewBox="0 0 63 59" version="1.1" xmlns="http://www.w3.org/2000/svg" xmlns:xlink="http://www.w3.org/1999/xlink" xml:space="preserve" xmlns:serif="http://www.serif.com/" style="fill-rule:evenodd;clip-rule:evenodd;stroke-linejoin:round;stroke-miterlimit:2;">
    <g transform="matrix(1,0,0,1,-18.1583,8.20143)">
        <path d="M73.572,5.236C73.572,6.978 73.243,8.609 72.583,10.131C71.924,11.653 71.029,12.979 69.898,14.111C68.767,15.242 67.436,16.137 65.906,16.796C64.376,17.455 62.749,17.785 61.023,17.785L50.354,17.785L50.354,31.823L46.106,31.823L46.106,9.972L37,9.972C35.258,9.972 33.627,9.643 32.105,8.984C30.583,8.324 29.257,7.429 28.125,6.298C26.994,5.167 26.099,3.84 25.44,2.319C24.781,0.797 24.451,-0.835 24.451,-2.576L37.806,-2.576C39.466,-2.576 41.032,-2.271 42.505,-1.661C43.978,-1.051 45.28,-0.216 46.412,0.842C47.543,1.9 48.454,3.149 49.146,4.589C49.838,6.03 50.232,7.58 50.33,9.24L50.354,9.24L50.354,10.046C51.543,8.516 52.999,7.332 54.725,6.493C56.45,5.655 58.281,5.236 60.218,5.236L73.572,5.236Z" style="fill:white;fill-rule:nonzero;"/>
        <path d="M48.23,30.749C50.411,30.749 52.458,31.164 54.371,31.994C56.283,32.824 57.955,33.951 59.388,35.375C60.82,36.799 61.947,38.472 62.769,40.392C63.591,42.313 64.002,44.364 64.002,46.545L32.435,46.545C32.435,45.096 32.622,43.696 32.996,42.345C33.37,40.995 33.903,39.737 34.595,38.574C35.287,37.41 36.113,36.348 37.073,35.387C38.033,34.427 39.095,33.601 40.259,32.909C41.423,32.218 42.68,31.685 44.031,31.31C45.382,30.936 46.782,30.749 48.23,30.749Z" style="fill:white;fill-rule:nonzero;"/>
    </g>
</svg>
